<svg id="visual" viewBox="0 0 900 600" width="900" height="600" xmlns="http://www.w3.org/2000/svg" xmlns:xlink="http://www.w3.org/1999/xlink" version="1.1"><rect x="0" y="0" width="900" height="600" fill="#272A3D"></rect><path d="M0 476L75 495L150 455L225 465L300 481L375 412L450 502L525 469L600 452L675 434L750 449L825 500L900 451L900 601L825 601L750 601L675 601L600 601L525 601L450 601L375 601L300 601L225 601L150 601L75 601L0 601Z" fill="#1e2030"></path><path d="M0 447L75 454L150 488L225 476L300 476L375 440L450 490L525 497L600 499L675 502L750 473L825 465L900 521L900 601L825 601L750 601L675 601L600 601L525 601L450 601L375 601L300 601L225 601L150 601L75 601L0 601Z" fill="#282b3b"></path><path d="M0 539L75 525L150 487L225 479L300 511L375 521L450 527L525 529L600 482L675 491L750 535L825 518L900 490L900 601L825 601L750 601L675 601L600 601L525 601L450 601L375 601L300 601L225 601L150 601L75 601L0 601Z" fill="#2f3242"></path><path d="M0 553L75 551L150 509L225 517L300 544L375 555L450 512L525 518L600 542L675 517L750 540L825 546L900 508L900 601L825 601L750 601L675 601L600 601L525 601L450 601L375 601L300 601L225 601L150 601L75 601L0 601Z" fill="#282b3b"></path><path d="M0 568L75 560L150 563L225 565L300 574L375 545L450 563L525 565L600 565L675 572L750 545L825 543L900 552L900 601L825 601L750 601L675 601L600 601L525 601L450 601L375 601L300 601L225 601L150 601L75 601L0 601Z" fill="#1e2030"></path></svg>